<?xml version="1.0" standalone="no"?>
<!DOCTYPE svg PUBLIC "-//W3C//DTD SVG 20010904//EN"
 "http://www.w3.org/TR/2001/REC-SVG-20010904/DTD/svg10.dtd">
<svg version="1.0" xmlns="http://www.w3.org/2000/svg"
 width="700.000000pt" height="700.000000pt" viewBox="0 0 700.000000 700.000000"
 preserveAspectRatio="xMidYMid meet">
<metadata>
Created by potrace 1.14, written by Peter Selinger 2001-2017
</metadata>
<g transform="translate(0.000000,700.000000) scale(0.100000,-0.100000)"
fill="#000000" stroke="none">
<path d="M3130 6985 c-463 -51 -910 -191 -1304 -407 -771 -423 -1356 -1118
-1640 -1947 -26 -74 -45 -135 -43 -137 1 -1 68 2 147 8 181 14 346 1 512 -41
377 -96 724 -294 996 -569 52 -51 97 -91 100 -87 4 3 10 75 13 158 18 414 186
814 454 1082 200 200 435 332 719 405 162 41 296 54 493 47 262 -9 464 -60
684 -173 264 -135 451 -310 606 -569 155 -258 232 -348 359 -424 160 -94 330
-149 492 -158 96 -6 113 -3 283 37 167 40 184 42 208 29 74 -41 -1 -218 -137
-323 -169 -129 -375 -198 -592 -197 -161 0 -296 38 -402 112 -14 11 -30 19
-35 19 -5 0 -14 -32 -21 -71 -33 -195 -167 -458 -325 -642 -118 -137 -334
-270 -512 -317 -257 -67 -534 -44 -760 64 -346 165 -561 539 -542 946 7 135
32 241 83 349 51 106 167 221 277 274 220 107 447 83 602 -64 98 -92 140 -205
133 -358 -3 -83 -8 -106 -37 -168 -61 -131 -188 -223 -328 -238 -55 -6 -72
-12 -96 -36 -25 -25 -28 -35 -23 -62 14 -72 120 -163 230 -198 136 -44 307
-22 437 57 128 77 241 244 291 429 32 120 32 375 0 495 -89 328 -351 566 -742
672 -111 31 -304 30 -424 -1 -213 -55 -381 -155 -543 -324 -344 -359 -415
-868 -199 -1417 92 -231 229 -465 521 -890 245 -356 274 -400 356 -537 349
-578 536 -1109 572 -1625 l11 -168 26 0 c39 0 298 55 422 90 760 214 1443 697
1901 1343 114 160 197 300 287 482 196 397 304 778 350 1234 15 153 12 519 -5
687 -99 937 -560 1785 -1292 2375 -529 425 -1152 682 -1830 754 -169 18 -571
18 -733 0z"/>
<path d="M36 4023 c-40 -269 -49 -638 -21 -898 71 -673 329 -1301 749 -1830
498 -625 1226 -1076 2002 -1239 135 -28 316 -56 364 -56 l32 0 -7 67 c-16 164
-77 610 -100 738 -126 694 -393 1344 -759 1850 -168 233 -461 542 -669 707
-340 270 -716 481 -1129 634 -126 46 -407 134 -431 134 -11 0 -19 -27 -31
-107z"/>
</g>
</svg>
