<?xml version="1.0" encoding="utf-8"?>
<!-- Generator: Adobe Illustrator 24.1.2, SVG Export Plug-In . SVG Version: 6.00 Build 0)  -->
<svg version="1.1" id="Layer_1" xmlns="http://www.w3.org/2000/svg" xmlns:xlink="http://www.w3.org/1999/xlink" x="0px" y="0px"
	 viewBox="0 0 900 900" style="enable-background:new 0 0 900 900;" xml:space="preserve">
<style type="text/css">
	.st0{fill-rule:evenodd;clip-rule:evenodd;fill:#0071E5;}
	.st1{fill-rule:evenodd;clip-rule:evenodd;fill:#0BD95C;}
</style>
<path class="st0" d="M514.8,897.5C732.6,866,900,678.2,900,451.1C900,202,698.5,0,450,0C246.2,0,74,135.8,18.7,322.1
	c24.6-3,47.7-2.8,61.5-1c62.8,9.8,121.7,42.7,163.4,90.5c1.7-7.2,1.7-14.6,1.7-22.1c0-5.9,0-11.7,0.8-17.5
	c4.3-30.3,15.2-61.7,31-87.8c56.3-93.3,187.8-117.9,279.6-65c23.5,13.5,45,32.3,60.6,54.6c4.7,6.8,8.9,13.8,13,20.8
	c9.8,16.7,19.4,33,36.5,44.5c25.1,16.9,62.7,29.7,92.9,22.1c2.8-0.7,5.6-1.5,8.5-2.2c7.5-2,15.1-4,22.5-5.3c4-0.7,9.1-0.7,11.3,3.3
	c2.7,5,0,12-2.1,16.7c-6.4,13.9-16.9,23.3-29.9,31c-36.9,21.9-86.9,26.9-122.1,0c-1.2,14.4-6.4,28-11.7,41.3
	c-11.3,28.1-30.5,54.7-55.4,72.3c-41.8,29.6-101.1,32.7-146.2,9.1c-13-6.8-24.4-16.9-34.1-27.9c-30.9-35.3-40.4-93.4-20.4-136.1
	c18.7-40,74.4-60.4,111.2-31.8c27.6,21.4,29.3,68.9,1.7,91.2c-6.2,5-14.4,9.5-22.3,11.1c-1.9,0.4-3.9,0.5-5.8,0.6
	c-3.3,0.2-6.6,0.3-9.6,1.9c-7.5,3.9-7.1,10.5-2.6,16.6c23.1,31.5,72.1,26.1,96.5-0.3c30.4-32.9,34.1-92,13.5-130.6
	c-10.8-20.2-29.1-36.8-49-47.7c-16.6-9.1-39.5-17-58.5-17.7c-59.2-2.2-115.2,41.9-134.4,96.4c-32.4,92.2,26.9,177.2,78.5,251.3
	c7.8,11.2,15.5,22.2,22.6,32.9C473.3,714.4,515.2,804.3,514.8,897.5L514.8,897.5z M405.4,900C177.8,877.6,0,685.1,0,451.1
	c0-28.1,2.6-55.6,7.5-82.2c28.3,7.8,55.8,16.7,83,28.5c44.4,19.2,86.6,44.3,123.8,75.3C328.8,568,385,707.2,400.3,852.5
	c0.6,5.4,1.3,10.7,2.1,16c1.2,8.4,2.4,16.8,2.8,25.3C405.3,895.9,405.4,898,405.4,900z"/>
<path class="st1" d="M514.8,897.5C732.6,866,900,678.2,900,451.1C900,202,698.5,0,450,0C246.2,0,74,135.8,18.7,322.1
	c24.6-3,47.7-2.8,61.5-1c62.8,9.8,121.7,42.7,163.4,90.5c1.7-7.2,1.7-14.6,1.7-22.1c0-5.9,0-11.7,0.8-17.5
	c4.3-30.3,15.2-61.7,31-87.8c56.3-93.3,187.8-117.9,279.6-65c23.5,13.5,45,32.3,60.6,54.6c4.7,6.8,8.9,13.8,13,20.8
	c9.8,16.7,19.4,33,36.5,44.5c25.1,16.9,62.7,29.7,92.9,22.1c2.8-0.7,5.6-1.5,8.5-2.2c7.5-2,15.1-4,22.5-5.3c4-0.7,9.1-0.7,11.3,3.3
	c2.7,5,0,12-2.1,16.7c-6.4,13.9-16.9,23.3-29.9,31c-36.9,21.9-86.9,26.9-122.1,0c-1.2,14.4-6.4,28-11.7,41.3
	c-11.3,28.1-30.5,54.7-55.4,72.3c-41.8,29.6-101.1,32.7-146.2,9.1c-13-6.8-24.4-16.9-34.1-27.9c-30.9-35.3-40.4-93.4-20.4-136.1
	c18.7-40,74.4-60.4,111.2-31.8c27.6,21.4,29.3,68.9,1.7,91.2c-6.2,5-14.4,9.5-22.3,11.1c-1.9,0.4-3.9,0.5-5.8,0.6
	c-3.3,0.2-6.6,0.3-9.6,1.9c-7.5,3.9-7.1,10.5-2.6,16.6c23.1,31.5,72.1,26.1,96.5-0.3c30.4-32.9,34.1-92,13.5-130.6
	c-10.8-20.2-29.1-36.8-49-47.7c-16.6-9.1-39.5-17-58.5-17.7c-59.2-2.2-115.2,41.9-134.4,96.4c-32.4,92.2,26.9,177.2,78.5,251.3
	c7.8,11.2,15.5,22.2,22.6,32.9C473.3,714.4,515.2,804.3,514.8,897.5L514.8,897.5z M405.4,900C177.8,877.6,0,685.1,0,451.1
	c0-28.1,2.6-55.6,7.5-82.2c28.3,7.8,55.8,16.7,83,28.5c44.4,19.2,86.6,44.3,123.8,75.3C328.8,568,385,707.2,400.3,852.5
	c0.6,5.4,1.3,10.7,2.1,16c1.2,8.4,2.4,16.8,2.8,25.3C405.3,895.9,405.4,898,405.4,900z"/>
</svg>
